<?xml version="1.0" encoding="UTF-8" standalone="no"?>
<!-- Generator: Adobe Illustrator 16.0.3, SVG Export Plug-In . SVG Version: 6.00 Build 0)  -->

<svg
   version="1.1"
   id="Layer_1"
   x="0px"
   y="0px"
   width="72px"
   height="112px"
   viewBox="0 0 72 112"
   enable-background="new 0 0 72 112"
   xml:space="preserve"
   sodipodi:docname="tba_lamp.svg"
   inkscape:version="1.4.2 (2aeb623e1d, 2025-05-12)"
   xmlns:inkscape="http://www.inkscape.org/namespaces/inkscape"
   xmlns:sodipodi="http://sodipodi.sourceforge.net/DTD/sodipodi-0.dtd"
   xmlns="http://www.w3.org/2000/svg"
   xmlns:svg="http://www.w3.org/2000/svg"><defs
   id="defs8" /><sodipodi:namedview
   id="namedview8"
   pagecolor="#ffffff"
   bordercolor="#000000"
   borderopacity="0.25"
   inkscape:showpageshadow="2"
   inkscape:pageopacity="0.0"
   inkscape:pagecheckerboard="0"
   inkscape:deskcolor="#d1d1d1"
   inkscape:zoom="7.1696429"
   inkscape:cx="35.985056"
   inkscape:cy="56"
   inkscape:window-width="1854"
   inkscape:window-height="1011"
   inkscape:window-x="0"
   inkscape:window-y="0"
   inkscape:window-maximized="1"
   inkscape:current-layer="g8" />
<g
   id="g8">
	<g
   id="g1"
   style="fill:#000000">
		<rect
   x="8"
   y="20"
   fill="#FFFFFF"
   width="6"
   height="64"
   id="rect1"
   style="fill:#000000" />
	</g>
	<g
   id="g2"
   style="fill:#000000">
		<rect
   x="58"
   y="20"
   fill="#FFFFFF"
   width="6"
   height="64"
   id="rect2"
   style="fill:#000000" />
	</g>
	<g
   id="g3"
   style="fill:#000000">
		<path
   fill="#FFFFFF"
   d="M36,112C20.561,112,8,99.439,8,84h6c0,12.131,9.869,22,22,22V112z"
   id="path2"
   style="fill:#000000" />
	</g>
	<g
   id="g4"
   style="fill:#000000">
		<path
   fill="#FFFFFF"
   d="M36,112v-6c12.131,0,22-9.869,22-22h6C64,99.439,51.439,112,36,112z"
   id="path3"
   style="fill:#000000" />
	</g>
	<g
   id="g5"
   style="fill:#000000">
		<rect
   x="33"
   y="20"
   fill="#FFFFFF"
   width="6"
   height="89"
   id="rect4"
   style="fill:#000000" />
	</g>
	<g
   id="g6"
   style="fill:#000000">
		<rect
   x="11"
   y="78"
   fill="#FFFFFF"
   width="50"
   height="6"
   id="rect5"
   style="fill:#000000" />
	</g>
	<g
   id="g7"
   style="fill:#000000">
		<rect
   x="11"
   y="50"
   fill="#FFFFFF"
   width="50"
   height="6"
   id="rect6"
   style="fill:#000000" />
	</g>
	<g
   id="Lamp_Rectangle_4_"
   style="fill:#000000">
		<path
   fill="#FFFFFF"
   d="M72,24c0,2.2-1.8,4-4,4H4c-2.2,0-4-1.8-4-4V4c0-2.2,1.8-4,4-4h64c2.2,0,4,1.8,4,4V24z"
   id="path7"
   style="fill:#000000" />
	</g>
</g>
</svg>
